<?xml version="1.0" encoding="UTF-8"?>
<svg id="Layer_1" xmlns="http://www.w3.org/2000/svg" version="1.1" viewBox="0 0 2527.3 979.4">
  <!-- Generator: Adobe Illustrator 30.2.1, SVG Export Plug-In . SVG Version: 2.1.1 Build 1)  -->
  <g>
    <path d="M2485.4,683.3c-23.1,0-41.9-18.8-41.9-41.9s18.8-41.9,41.9-41.9,41.9,18.8,41.9,41.9-18.9,41.9-41.9,41.9ZM2485.4,605.5c-19.8,0-35.9,16.1-35.9,35.9s16.1,35.9,35.9,35.9,35.9-16.1,35.9-35.9c-.1-19.8-16.1-35.9-35.9-35.9Z"/>
    <path d="M2503.2,660.5l-8.5-12.2h.1c2.5-1.1,4.4-2.7,5.7-4.7,1.3-2.1,2-4.5,2-7.3s-.7-5.3-2-7.4c-1.3-2.1-3.3-3.7-5.7-4.8-2.5-1.1-5.4-1.7-8.8-1.7h-16.7v38.2h8.8v-10.6h8.1l7.4,10.7h9.6v-.2ZM2491.5,631.2c1.4,1.2,2,2.8,2,4.9s-.7,3.7-2,4.9-3.4,1.8-6.1,1.8h-7.2v-13.3h7.2c2.7,0,4.7.6,6.1,1.7Z"/>
  </g>
  <g>
    <path d="M60.8,808c9.7,0,18.1,1.8,25.5,5.5,7.3,3.7,13,9.3,17.2,16.9,4.1,7.5,6.2,17,6.2,28.5v69h-16.1v-67.4c0-12.5-3.1-22-9.4-28.4s-15-9.6-26.4-9.6c-8.5,0-15.8,1.7-22.1,5.1-6.3,3.4-11.1,8.3-14.5,14.7-3.4,6.4-5.1,14.1-5.1,23.2v62.4H0v-167.9h16.3v81.7l-3.2-6.1c3.8-8.6,9.8-15.3,18.1-20.2,8.3-5,18.2-7.4,29.6-7.4Z"/>
    <path d="M186.6,929c-8.9,0-16.6-1.5-23.2-4.4-6.6-3-11.6-7-15-12.2-3.5-5.2-5.2-11.2-5.2-18,0-6.2,1.5-11.8,4.4-16.8,2.9-5.1,7.8-9.1,14.5-12.2s15.7-4.6,27-4.6h40.9v12h-40.5c-11.5,0-19.4,2.1-23.9,6.1-4.5,4.1-6.7,9.1-6.7,15.2,0,6.8,2.6,12.2,7.9,16.3,5.3,4.1,12.7,6.1,22.2,6.1,9,0,16.9-2.1,23.4-6.2,6.6-4.2,11.3-10.1,14.4-18l3.6,11.1c-3,7.8-8.3,14.1-15.7,18.8-7.4,4.4-16.8,6.8-28.1,6.8ZM227.5,927.8v-26.2l-.7-4.3v-43.9c0-10.1-2.8-17.9-8.5-23.3s-14.1-8.1-25.2-8.1c-7.7,0-15,1.3-21.9,3.8-6.9,2.6-12.8,6-17.7,10.2l-7.2-12c6-5.1,13.3-9.1,21.7-11.9,8.5-2.8,17.3-4.2,26.7-4.2,15.4,0,27.3,3.8,35.6,11.4,8.4,7.6,12.6,19.2,12.6,34.7v73.7h-15.4v.1Z"/>
    <path d="M286.6,971.7v-162.7h15.4v35.7l-1.6,23.8,2.3,24v79.2h-16.1ZM347.9,929c-10.3,0-19.5-2.4-27.8-7.1-8.3-4.8-14.9-11.6-19.8-20.6-4.9-9-7.4-19.9-7.4-32.9s2.4-23.9,7.2-32.9,11.4-15.8,19.7-20.5,17.7-7,28.1-7c11.3,0,21.5,2.5,30.4,7.6s16,12.1,21.2,21.3c5.1,9.1,7.7,19.7,7.7,31.6s-2.6,22.6-7.7,31.7c-5.1,9.1-12.2,16.2-21.2,21.3s-19.1,7.5-30.4,7.5ZM346.8,914.7c8.5,0,16-1.9,22.6-5.8,6.6-3.8,11.9-9.3,15.8-16.3,3.9-7,5.9-15.1,5.9-24.3s-2-17.3-5.9-24.2-9.2-12.3-15.8-16.3-14.2-5.9-22.6-5.9-16,1.9-22.7,5.9c-6.7,3.9-12,9.3-15.8,16.3-3.8,6.9-5.8,15-5.8,24.2s1.9,17.3,5.8,24.3c3.9,7,9.1,12.4,15.8,16.3s14.2,5.8,22.7,5.8Z"/>
    <path d="M440,971.7v-162.7h15.4v35.7l-1.6,23.8,2.3,24v79.2h-16.1ZM501.3,929c-10.3,0-19.5-2.4-27.8-7.1-8.3-4.8-14.9-11.6-19.8-20.6-4.9-9-7.4-19.9-7.4-32.9s2.4-23.9,7.2-32.9,11.4-15.8,19.7-20.5,17.7-7,28.1-7c11.3,0,21.5,2.5,30.4,7.6,9,5.1,16,12.1,21.2,21.3,5.1,9.1,7.7,19.7,7.7,31.6s-2.6,22.6-7.7,31.7c-5.1,9.1-12.2,16.2-21.2,21.3-8.9,4.9-19.1,7.5-30.4,7.5ZM500.2,914.7c8.5,0,16-1.9,22.6-5.8,6.6-3.8,11.9-9.3,15.8-16.3,3.9-7,5.9-15.1,5.9-24.3s-2-17.3-5.9-24.2-9.2-12.3-15.8-16.3c-6.6-3.9-14.2-5.9-22.6-5.9s-16,1.9-22.7,5.9c-6.7,3.9-12,9.3-15.8,16.3-3.8,6.9-5.8,15-5.8,24.2s1.9,17.3,5.8,24.3c3.9,7,9.1,12.4,15.8,16.3,6.6,3.9,14.2,5.8,22.7,5.8Z"/>
    <path d="M601.5,782.8c-3.3,0-6.1-1.1-8.4-3.4-2.3-2.3-3.4-5-3.4-8.2s1.1-5.9,3.4-8c2.3-2.2,5-3.3,8.4-3.3s6.1,1.1,8.4,3.2c2.3,2.1,3.4,4.8,3.4,7.9,0,3.3-1.1,6.1-3.3,8.4-2.2,2.3-5,3.4-8.5,3.4ZM593.4,927.8v-118.8h16.1v118.8h-16.1Z"/>
    <path d="M714.9,808c9.7,0,18.1,1.8,25.5,5.5,7.3,3.7,13,9.3,17.2,16.9,4.1,7.5,6.2,17,6.2,28.5v69h-16.1v-67.4c0-12.5-3.1-22-9.4-28.4-6.3-6.4-15-9.6-26.4-9.6-8.5,0-15.8,1.7-22.1,5.1s-11.1,8.3-14.5,14.7c-3.4,6.4-5.1,14.1-5.1,23.2v62.4h-16.1v-118.8h15.4v32.6l-2.5-6.1c3.8-8.6,9.8-15.3,18.1-20.2,8.4-5,18.3-7.4,29.8-7.4Z"/>
    <path d="M857.6,929c-12.4,0-23.2-2.6-32.6-7.8-9.3-5.2-16.7-12.4-21.9-21.5-5.3-9.1-7.9-19.6-7.9-31.3s2.5-22.2,7.6-31.2c5-9.1,12-16.2,20.8-21.4,8.8-5.2,18.7-7.8,29.7-7.8s21.1,2.5,29.8,7.6c8.7,5.1,15.5,12.1,20.5,21.3,5,9.1,7.5,19.7,7.5,31.6,0,.8,0,1.5-.1,2.4-.1.8-.1,1.7-.1,2.6h-103.4v-12h94.8l-6.3,4.8c0-8.6-1.9-16.2-5.5-23-3.7-6.7-8.7-12-15-15.7-6.3-3.8-13.7-5.7-21.9-5.7s-15.5,1.9-21.9,5.7c-6.5,3.8-11.5,9.1-15.2,15.8-3.6,6.8-5.4,14.6-5.4,23.3v2.5c0,9,2,17,6,23.9s9.6,12.2,16.7,16.1c7.2,3.8,15.4,5.8,24.6,5.8,7.2,0,14-1.3,20.2-3.8,6.3-2.6,11.7-6.5,16.2-11.8l9,10.4c-5.3,6.3-11.9,11.2-19.8,14.5-8.2,3-16.9,4.7-26.4,4.7Z"/>
    <path d="M975.7,929c-9.8,0-19.1-1.4-27.8-4.2-8.7-2.8-15.6-6.3-20.6-10.5l7.2-12.7c4.8,3.6,11,6.8,18.5,9.4,7.5,2.7,15.5,4,23.8,4,11.3,0,19.5-1.8,24.4-5.3,5-3.6,7.5-8.3,7.5-14.1,0-4.4-1.4-7.8-4.2-10.3-2.8-2.5-6.4-4.4-11-5.7-4.5-1.3-9.6-2.4-15.2-3.3s-11.1-1.9-16.6-3.2c-5.5-1.2-10.5-3-15-5.3s-8.2-5.5-11-9.6-4.2-9.5-4.2-16.3,1.8-12.3,5.4-17.4,8.9-9.1,16-12.1c7-2.9,15.6-4.4,25.7-4.4,7.7,0,15.4,1,23.1,3s14,4.7,19,8l-7,12.9c-5.3-3.6-10.9-6.2-17-7.8s-12.1-2.4-18.1-2.4c-10.7,0-18.6,1.9-23.6,5.5-5,3.7-7.6,8.4-7.6,14.1,0,4.5,1.4,8.1,4.2,10.6,2.8,2.6,6.5,4.6,11.1,6s9.6,2.6,15.2,3.5c5.5.9,11,2,16.5,3.3s10.5,3,15.2,5.2c4.6,2.2,8.3,5.3,11.1,9.3,2.8,4,4.2,9.2,4.2,15.7,0,6.9-1.9,12.9-5.8,18-3.8,5.1-9.4,9-16.7,11.8-7.4,2.9-16.3,4.3-26.7,4.3Z"/>
    <path d="M1086.1,929c-9.8,0-19.1-1.4-27.8-4.2-8.7-2.8-15.6-6.3-20.6-10.5l7.2-12.7c4.8,3.6,11,6.8,18.5,9.4,7.5,2.7,15.5,4,23.8,4,11.3,0,19.5-1.8,24.4-5.3,5-3.6,7.5-8.3,7.5-14.1,0-4.4-1.4-7.8-4.2-10.3-2.8-2.5-6.4-4.4-11-5.7-4.5-1.3-9.6-2.4-15.2-3.3s-11.1-1.9-16.6-3.2c-5.5-1.2-10.5-3-15-5.3s-8.2-5.5-11-9.6-4.2-9.5-4.2-16.3,1.8-12.3,5.4-17.4,8.9-9.1,16-12.1c7-2.9,15.6-4.4,25.7-4.4,7.7,0,15.4,1,23.1,3s14,4.7,19,8l-7,12.9c-5.3-3.6-10.9-6.2-17-7.8-6-1.6-12.1-2.4-18.1-2.4-10.7,0-18.6,1.9-23.6,5.5-5,3.7-7.6,8.4-7.6,14.1,0,4.5,1.4,8.1,4.2,10.6,2.8,2.6,6.5,4.6,11.1,6s9.6,2.6,15.2,3.5c5.5.9,11,2,16.5,3.3s10.5,3,15.2,5.2c4.6,2.2,8.3,5.3,11.1,9.3,2.8,4,4.2,9.2,4.2,15.7,0,6.9-1.9,12.9-5.8,18-3.8,5.1-9.4,9-16.7,11.8-7.4,2.9-16.3,4.3-26.7,4.3Z"/>
    <path d="M1257.4,929c-8.9,0-16.6-1.5-23.2-4.4-6.6-3-11.6-7-15-12.2-3.5-5.2-5.2-11.2-5.2-18,0-6.2,1.5-11.8,4.4-16.8,2.9-5.1,7.8-9.1,14.5-12.2s15.7-4.6,27-4.6h40.9v12h-40.5c-11.5,0-19.4,2.1-23.9,6.1-4.5,4.1-6.7,9.1-6.7,15.2,0,6.8,2.6,12.2,7.9,16.3,5.3,4.1,12.7,6.1,22.2,6.1,9,0,16.9-2.1,23.4-6.2,6.6-4.2,11.3-10.1,14.4-18l3.6,11.1c-3,7.8-8.3,14.1-15.7,18.8-7.5,4.4-16.8,6.8-28.1,6.8ZM1298.3,927.8v-26.2l-.7-4.3v-43.9c0-10.1-2.8-17.9-8.5-23.3s-14.1-8.1-25.2-8.1c-7.7,0-15,1.3-21.9,3.8-6.9,2.6-12.8,6-17.7,10.2l-7.2-12c6-5.1,13.3-9.1,21.7-11.9,8.5-2.8,17.3-4.2,26.7-4.2,15.4,0,27.3,3.8,35.6,11.4,8.4,7.6,12.6,19.2,12.6,34.7v73.7h-15.4v.1Z"/>
    <path d="M1418,808c9.7,0,18.1,1.8,25.5,5.5,7.3,3.7,13,9.3,17.2,16.9,4.1,7.5,6.2,17,6.2,28.5v69h-16.1v-67.4c0-12.5-3.1-22-9.4-28.4s-15-9.6-26.4-9.6c-8.5,0-15.8,1.7-22.1,5.1-6.3,3.4-11.1,8.3-14.5,14.7-3.4,6.4-5.1,14.1-5.1,23.2v62.4h-16.1v-118.8h15.4v32.6l-2.5-6.1c3.8-8.6,9.8-15.3,18.1-20.2,8.4-5,18.3-7.4,29.8-7.4Z"/>
    <path d="M1557.6,929c-11.3,0-21.5-2.6-30.4-7.7s-16-12.3-21.2-21.4c-5.1-9.1-7.7-19.6-7.7-31.5s2.6-22.6,7.7-31.7c5.1-9,12.2-16.1,21.2-21.1s19.1-7.6,30.4-7.6c10.4,0,19.7,2.3,27.9,7,8.2,4.7,14.8,11.5,19.7,20.5,4.9,9,7.3,20,7.3,32.9s-2.4,23.8-7.2,32.8c-4.8,9-11.3,16-19.6,20.7-8.2,4.7-17.6,7.1-28.1,7.1ZM1558.7,914.7c8.5,0,16-1.9,22.7-5.8,6.7-3.8,12-9.3,15.8-16.3s5.8-15.1,5.8-24.3-1.9-17.5-5.8-24.4c-3.8-6.9-9.1-12.3-15.8-16.2-6.7-3.8-14.3-5.8-22.7-5.8s-15.8,1.9-22.4,5.8c-6.6,3.8-11.9,9.2-15.8,16.2-3.9,6.9-5.9,15.1-5.9,24.4s2,17.3,5.9,24.3,9.2,12.4,15.8,16.3c6.6,3.9,14.1,5.8,22.4,5.8ZM1603.5,927.8v-35.7l1.6-24-2.3-24v-84.2h16.1v167.9h-15.4Z"/>
    <path d="M1783.6,808c9.7,0,18.1,1.8,25.5,5.5,7.3,3.7,13,9.3,17.2,16.9,4.1,7.5,6.2,17,6.2,28.5v69h-16.1v-67.4c0-12.5-3.1-22-9.4-28.4-6.3-6.4-15-9.6-26.4-9.6-8.5,0-15.8,1.7-22.1,5.1-6.3,3.4-11.1,8.3-14.5,14.7-3.4,6.4-5.1,14.1-5.1,23.2v62.4h-16.1v-167.9h16.1v81.7l-3.2-6.1c3.8-8.6,9.8-15.3,18.1-20.2,8.4-5,18.3-7.4,29.8-7.4Z"/>
    <path d="M1926.3,929c-12.4,0-23.2-2.6-32.6-7.8-9.3-5.2-16.7-12.4-21.9-21.5-5.3-9.1-7.9-19.6-7.9-31.3s2.5-22.2,7.6-31.2c5-9.1,12-16.2,20.8-21.4,8.8-5.2,18.7-7.8,29.7-7.8s21.1,2.5,29.8,7.6,15.5,12.1,20.5,21.3c5,9.1,7.5,19.7,7.5,31.6,0,.8,0,1.5-.1,2.4-.1.8-.1,1.7-.1,2.6h-103.4v-12h94.8l-6.3,4.8c0-8.6-1.9-16.2-5.5-23-3.7-6.7-8.7-12-15-15.7-6.3-3.8-13.7-5.7-21.9-5.7s-15.5,1.9-21.9,5.7c-6.5,3.8-11.5,9.1-15.2,15.8-3.6,6.8-5.4,14.6-5.4,23.3v2.5c0,9,2,17,6,23.9s9.6,12.2,16.7,16.1c7.2,3.8,15.4,5.8,24.6,5.8,7.2,0,14-1.3,20.2-3.8,6.3-2.6,11.7-6.5,16.2-11.8l9,10.4c-5.3,6.3-11.9,11.2-19.8,14.5s-16.9,4.7-26.4,4.7Z"/>
    <path d="M2042.6,929c-8.9,0-16.6-1.5-23.2-4.4-6.6-3-11.6-7-15-12.2-3.5-5.2-5.2-11.2-5.2-18,0-6.2,1.5-11.8,4.4-16.8,2.9-5.1,7.8-9.1,14.5-12.2s15.7-4.6,27-4.6h40.9v12h-40.5c-11.5,0-19.4,2.1-23.9,6.1-4.5,4.1-6.7,9.1-6.7,15.2,0,6.8,2.6,12.2,7.9,16.3,5.3,4.1,12.7,6.1,22.2,6.1,9,0,16.9-2.1,23.4-6.2,6.6-4.2,11.3-10.1,14.4-18l3.6,11.1c-3,7.8-8.3,14.1-15.7,18.8-7.4,4.4-16.8,6.8-28.1,6.8ZM2083.5,927.8v-26.2l-.7-4.3v-43.9c0-10.1-2.8-17.9-8.5-23.3s-14.1-8.1-25.2-8.1c-7.7,0-15,1.3-21.9,3.8-6.9,2.6-12.8,6-17.7,10.2l-7.2-12c6-5.1,13.3-9.1,21.7-11.9,8.5-2.8,17.3-4.2,26.7-4.2,15.4,0,27.3,3.8,35.6,11.4,8.4,7.6,12.6,19.2,12.6,34.7v73.7h-15.4v.1Z"/>
    <path d="M2142.6,927.8v-167.9h16.1v167.9h-16.1Z"/>
    <path d="M2185.3,822.4v-13.3h73.5v13.3h-73.5ZM2241.4,929c-11.2,0-19.8-3-25.8-9s-9-14.6-9-25.6v-111.5h16.1v110.6c0,6.9,1.8,12.3,5.3,16.1,3.5,3.8,8.6,5.7,15.3,5.7,7.1,0,13-2.1,17.6-6.1l5.7,11.5c-3.2,2.9-7,5-11.4,6.3-4.5,1.3-9.1,2-13.8,2Z"/>
    <path d="M2356.4,808c9.7,0,18.1,1.8,25.5,5.5,7.3,3.7,13,9.3,17.2,16.9,4.1,7.5,6.2,17,6.2,28.5v69h-16.1v-67.4c0-12.5-3.1-22-9.4-28.4-6.3-6.4-15-9.6-26.4-9.6-8.5,0-15.8,1.7-22.1,5.1s-11.1,8.3-14.5,14.7c-3.4,6.4-5.1,14.1-5.1,23.2v62.4h-16.1v-167.9h16.1v81.7l-3.2-6.1c3.8-8.6,9.8-15.3,18.1-20.2s18.3-7.4,29.8-7.4Z"/>
  </g>
  <g>
    <g>
      <path d="M1397.2,182.3c-136.3,0-246.8,110.5-246.8,246.8s110.5,246.8,246.8,246.8,246.8-110.5,246.8-246.8-110.5-246.8-246.8-246.8ZM1397.2,563.5c-74.2,0-134.3-60.1-134.3-134.3s60.1-134.3,134.3-134.3,134.3,60.1,134.3,134.3-60.1,134.3-134.3,134.3Z"/>
      <path d="M862.5,460.7c8.9,0,16.7-6.7,17.3-15.6.4-5.3.6-10.6.6-15.9,0-145.6-126-261.7-274.9-245.3-113.1,12.5-204.7,104.1-217.2,217.2-16.4,148.9,99.7,274.9,245.3,274.9,97.4,0,181.4-56.5,221.5-138.4,5.6-11.5-3-25-15.8-25h-92.5c-5.1,0-9.7,2.3-13.1,6.1-24.6,27.5-60.3,44.9-100.1,44.9-63.3,0-116.2-43.8-130.4-102.7l359.3-.2ZM633.6,294.9c51.2,0,95.6,28.6,118.3,70.7h-236.6c22.7-42.1,67.2-70.7,118.3-70.7Z"/>
      <path d="M1016.1,429.2V39.1c0-9.7-7.9-17.5-17.5-17.5h-77.4c-9.7,0-17.5,7.9-17.5,17.5v390.1c0,132.6,104.6,240.8,235.7,246.6,6.1.3,11.1-4.8,11.1-10.8v-91.2c0-5.7-4.5-10.2-10.3-10.6-69.5-5.4-124.1-63.3-124.1-134Z"/>
      <path d="M248.2,398.6c-47.3-15.5-105.3-26.5-127.9-48.2-1.9-1.8-3.3-3.9-4.4-6.2-2.7-6.1-4.3-13-4.3-20.9,0-.7-.1-1.2-.1-1.9,4.7-29.3,32.5-44.4,66.4-44.4,31.9,0,61.5,16.7,69.3,44.4,2.5,9,11.5,14.7,20.9,14.7h70.9c13.8,0,24.1-12.7,21.2-26.3-9.3-43.9-44.4-127.4-176.2-127.4C37,182.4,4.7,282.5,4.8,330.3c.1,32.7,4.5,98,107.9,129.6,47.3,15.5,105.3,26.5,127.9,48.2,1.9,1.8,3.3,3.9,4.4,6.3,2.7,6.1,4.3,13,4.3,20.9,0,.7.1,1.2.1,1.9-4.7,29.3-32.5,44.4-66.4,44.4-31.9,0-61.5-16.7-69.3-44.4-2.5-9-11.5-14.7-20.9-14.7H21.9c-13.8,0-24.1,12.7-21.2,26.3,9.3,43.9,44.4,127.4,176.2,127.4,147,0,179.3-100.1,179.2-147.9-.1-32.9-4.6-98.2-107.9-129.7Z"/>
    </g>
    <g>
      <g>
        <path d="M2394,182.2V30.1c0-12.4-9-22.4-20.1-22.4h-162.7c-11.1,0-20.1,10-20.1,22.4v172.8c0,35.3-25.7,63.8-57.4,63.8h-147.4l-204.7,227.8v170.3c0,12.4,9,22.4,20.1,22.4h163.8c11.1,0,20.1-10,20.1-22.4v-192.9c0-35.3,25.7-63.8,57.4-63.8h148l203-225.9Z"/>
        <path d="M2191.1,447.6v217.1c0,12.4,9,22.4,20.1,22.4h162.7c11.1,0,20.1-10,20.1-22.4V221.9l-202.9,225.7Z"/>
      </g>
      <path d="M1985.6,221.2V30.1c0-12.4-9-22.4-20.1-22.4h-163.8c-11.1,0-20.1,10-20.1,22.4v418.1l204-227Z"/>
    </g>
  </g>
</svg>