<?xml version="1.0" encoding="UTF-8"?>
<svg id="Layer_1" xmlns="http://www.w3.org/2000/svg" version="1.1" viewBox="0 0 3090.8 1453.62">
  <!-- Generator: Adobe Illustrator 30.2.1, SVG Export Plug-In . SVG Version: 2.1.1 Build 1)  -->
  <defs>
    <style>
      .st0 {
        fill: #f95e19;
      }
      .st-white {
        fill: #ffffff;
      }
    </style>
  </defs>
  <path fill="#fff" d="M2767.1,906.18c-23.1,0-41.9-18.8-41.9-41.9s18.8-41.9,41.9-41.9,41.9,18.8,41.9,41.9-18.9,41.9-41.9,41.9ZM2767.1,828.38c-19.8,0-35.9,16.1-35.9,35.9s16.1,35.9,35.9,35.9,35.9-16.1,35.9-35.9c-.1-19.8-16.1-35.9-35.9-35.9Z"/>
  <path fill="#fff" d="M2784.9,883.38l-8.5-12.2h.1c2.5-1.1,4.4-2.7,5.7-4.7,1.3-2.1,2-4.5,2-7.3s-.7-5.3-2-7.4c-1.3-2.1-3.3-3.7-5.7-4.8-2.5-1.1-5.4-1.7-8.8-1.7h-16.7v38.2h8.8v-10.6h8.1l7.4,10.7h9.6v-.2ZM2773.2,854.08c1.4,1.2,2,2.8,2,4.9s-.7,3.7-2,4.9-3.4,1.8-6.1,1.8h-7.2v-13.3h7.2c2.7,0,4.7.6,6.1,1.7Z"/>
  <path fill="#fff" d="M1678.9,405.18c-136.3,0-246.8,110.5-246.8,246.8s110.5,246.8,246.8,246.8,246.8-110.5,246.8-246.8-110.5-246.8-246.8-246.8ZM1678.9,786.38c-74.2,0-134.3-60.1-134.3-134.3s60.1-134.3,134.3-134.3,134.3,60.1,134.3,134.3-60.1,134.3-134.3,134.3Z"/>
  <path fill="#fff" d="M1144.2,683.58c8.9,0,16.7-6.7,17.3-15.6.4-5.3.6-10.6.6-15.9,0-145.6-126-261.7-274.9-245.3-113.1,12.5-204.7,104.1-217.2,217.2-16.4,148.9,99.7,274.9,245.3,274.9,97.4,0,181.4-56.5,221.5-138.4,5.6-11.5-3-25-15.8-25h-92.5c-5.1,0-9.7,2.3-13.1,6.1-24.6,27.5-60.3,44.9-100.1,44.9-63.3,0-116.2-43.8-130.4-102.7l359.3-.2ZM915.3,517.78c51.2,0,95.6,28.6,118.3,70.7h-236.6c22.7-42.1,67.2-70.7,118.3-70.7Z"/>
  <path fill="#fff" d="M1297.8,652.08v-390.1c0-9.7-7.9-17.5-17.5-17.5h-77.4c-9.7,0-17.5,7.9-17.5,17.5v390.1c0,132.6,104.6,240.8,235.7,246.6,6.1.3,11.1-4.8,11.1-10.8v-91.2c0-5.7-4.5-10.2-10.3-10.6-69.5-5.4-124.1-63.3-124.1-134Z"/>
  <path fill="#fff" d="M529.9,621.48c-47.3-15.5-105.3-26.5-127.9-48.2-1.9-1.8-3.3-3.9-4.4-6.2-2.7-6.1-4.3-13-4.3-20.9,0-.7-.1-1.2-.1-1.9,4.7-29.3,32.5-44.4,66.4-44.4,31.9,0,61.5,16.7,69.3,44.4,2.5,9,11.5,14.7,20.9,14.7h70.9c13.8,0,24.1-12.7,21.2-26.3-9.3-43.9-44.4-127.4-176.2-127.4-147,0-179.3,100.1-179.2,147.9.1,32.7,4.5,98,107.9,129.6,47.3,15.5,105.3,26.5,127.9,48.2,1.9,1.8,3.3,3.9,4.4,6.3,2.7,6.1,4.3,13,4.3,20.9,0,.7.1,1.2.1,1.9-4.7,29.3-32.5,44.4-66.4,44.4-31.9,0-61.5-16.7-69.3-44.4-2.5-9-11.5-14.7-20.9-14.7h-70.9c-13.8,0-24.1,12.7-21.2,26.3,9.3,43.9,44.4,127.4,176.2,127.4,147,0,179.3-100.1,179.2-147.9-.1-32.9-4.6-98.2-107.9-129.7Z"/>
  <path class="st0" fill="#fff" d="M2675.7,405.08v-152.1c0-12.4-9-22.4-20.1-22.4h-162.7c-11.1,0-20.1,10-20.1,22.4v172.8c0,35.3-25.7,63.8-57.4,63.8h-147.4l-204.7,227.8v170.3c0,12.4,9,22.4,20.1,22.4h163.8c11.1,0,20.1-10,20.1-22.4v-192.9c0-35.3,25.7-63.8,57.4-63.8h148l203-225.9Z"/>
  <path class="st0" fill="#fff" d="M2472.8,670.48v217.1c0,12.4,9,22.4,20.1,22.4h162.7c11.1,0,20.1-10,20.1-22.4v-442.8l-202.9,225.7Z"/>
  <path class="st0" fill="#fff" d="M2267.3,444.08v-191.1c0-12.4-9-22.4-20.1-22.4h-163.8c-11.1,0-20.1,10-20.1,22.4v418.1l204-227Z"/>
  <g>
    <g>
      <path fill="#fff" d="M1031.95,1007.85h60.11c26.52,0,46.46,3.97,59.82,11.91s20.04,21.44,20.04,40.51c0,8.23-1.58,15.61-4.72,22.14-3.15,6.53-7.72,11.93-13.72,16.19-6,4.26-13.41,7.21-22.22,8.86v1.45c9.29,1.45,17.52,4.11,24.68,7.99,7.16,3.87,12.78,9.29,16.84,16.26s6.1,15.83,6.1,26.57c0,13.07-3.03,24.1-9.08,33.11-6.05,9-14.59,15.8-25.63,20.4-11.04,4.6-24.1,6.9-39.2,6.9h-73.04v-212.28ZM1056.64,1098.89h40.66c18.49,0,31.29-3.05,38.41-9.15s10.67-15,10.67-26.72-4.24-20.81-12.71-26.14c-8.47-5.32-21.95-7.99-40.44-7.99h-36.59v69.99ZM1056.64,1119.65v79.43h44.14c18.88,0,32.23-3.7,40.08-11.11,7.84-7.41,11.76-17.4,11.76-29.98,0-8.03-1.77-14.91-5.3-20.62-3.54-5.71-9.24-10.09-17.13-13.14-7.89-3.05-18.42-4.57-31.58-4.57h-41.96Z"/>
      <path fill="#fff" d="M1292.74,1058.09c3.19,0,6.53.17,10.02.51s6.58.8,9.29,1.38l-3.05,22.36c-2.61-.68-5.52-1.21-8.71-1.6s-6.2-.58-9-.58c-6.39,0-12.41,1.28-18.08,3.85s-10.62,6.24-14.88,11.04c-4.26,4.79-7.6,10.55-10.02,17.28-2.42,6.73-3.63,14.21-3.63,22.43v85.38h-24.25v-159.14h20.04l2.61,29.33h1.02c3.29-5.9,7.26-11.3,11.91-16.19s10.04-8.78,16.19-11.69c6.15-2.9,13-4.36,20.55-4.36Z"/>
      <path fill="#fff" d="M1401.49,1058.38c18.97,0,33.06,4.26,42.25,12.78,9.2,8.52,13.79,22.12,13.79,40.8v108.18h-17.57l-4.65-23.52h-1.16c-4.45,5.81-9.1,10.67-13.94,14.59-4.84,3.92-10.43,6.87-16.77,8.86-6.34,1.98-14.11,2.98-23.3,2.98-9.68,0-18.27-1.69-25.77-5.08-7.5-3.39-13.41-8.52-17.71-15.39-4.31-6.87-6.46-15.58-6.46-26.14,0-15.88,6.29-28.07,18.88-36.59,12.58-8.52,31.75-13.16,57.5-13.94l27.44-1.16v-9.73c0-13.75-2.95-23.38-8.86-28.9-5.9-5.52-14.23-8.28-24.97-8.28-8.33,0-16.26,1.21-23.81,3.63-7.55,2.42-14.72,5.28-21.49,8.57l-7.41-18.3c7.16-3.68,15.39-6.82,24.68-9.44,9.29-2.61,19.07-3.92,29.33-3.92ZM1433.73,1141.72l-24.25,1.02c-19.84.77-33.83,4.02-41.96,9.73s-12.2,13.79-12.2,24.25c0,9.1,2.76,15.83,8.28,20.18,5.52,4.36,12.83,6.53,21.93,6.53,14.13,0,25.7-3.92,34.7-11.76s13.5-19.6,13.5-35.28v-14.67Z"/>
      <path fill="#fff" d="M1610.15,1176.57c0,10.16-2.54,18.71-7.62,25.63s-12.34,12.12-21.78,15.61c-9.44,3.48-20.69,5.23-33.76,5.23-11.13,0-20.76-.87-28.9-2.61s-15.25-4.21-21.34-7.41v-22.22c6.48,3.19,14.23,6.1,23.23,8.71s18.2,3.92,27.59,3.92c13.74,0,23.72-2.23,29.91-6.68,6.19-4.45,9.29-10.5,9.29-18.15,0-4.36-1.23-8.2-3.7-11.54s-6.61-6.58-12.41-9.73c-5.81-3.15-13.84-6.61-24.1-10.38-10.16-3.87-18.95-7.72-26.35-11.54s-13.12-8.49-17.13-14.01c-4.02-5.52-6.03-12.68-6.03-21.49,0-13.46,5.45-23.79,16.34-31s25.19-10.82,42.91-10.82c9.58,0,18.56.94,26.93,2.83,8.37,1.89,16.19,4.43,23.45,7.62l-8.13,19.31c-6.58-2.81-13.6-5.18-21.05-7.11-7.46-1.94-15.05-2.9-22.8-2.9-11.13,0-19.67,1.84-25.63,5.52-5.95,3.68-8.93,8.71-8.93,15.1,0,4.94,1.38,9,4.14,12.2s7.19,6.2,13.29,9,14.13,6.1,24.1,9.87c9.97,3.68,18.59,7.48,25.85,11.4,7.26,3.92,12.85,8.66,16.77,14.23,3.92,5.57,5.88,12.71,5.88,21.42Z"/>
      <path fill="#fff" d="M1661.26,1001.46c3.97,0,7.38,1.28,10.24,3.85,2.85,2.57,4.28,6.56,4.28,11.98s-1.43,9.29-4.28,11.91c-2.86,2.61-6.27,3.92-10.24,3.92s-7.62-1.31-10.38-3.92-4.14-6.58-4.14-11.91,1.38-9.41,4.14-11.98,6.22-3.85,10.38-3.85ZM1673.02,1060.99v159.14h-24.1v-159.14h24.1Z"/>
      <path fill="#fff" d="M1748.23,1220.13h-24.25v-225.93h24.25v225.93Z"/>
    </g>
    <g>
      <g>
        <path fill="#fff" d="M1874.58,1072.4h-50.06v-7.26l20.43-20.75c3.8-3.83,6.99-7.25,9.59-10.24s4.57-5.95,5.93-8.86c1.36-2.91,2.04-6.11,2.04-9.59,0-4.32-1.28-7.62-3.84-9.9s-5.93-3.42-10.11-3.42c-3.66,0-6.9.63-9.72,1.88s-5.71,3.03-8.67,5.33l-4.65-5.85c2.02-1.71,4.22-3.22,6.61-4.55s4.95-2.37,7.68-3.14,5.65-1.15,8.75-1.15c4.7,0,8.76.82,12.18,2.46s6.05,3.97,7.92,7,2.8,6.64,2.8,10.82-.8,7.8-2.4,11.26-3.85,6.9-6.74,10.29-6.27,6.99-10.14,10.79l-16.62,16.57v.37h39.04v7.94Z"/>
        <path fill="#fff" d="M1936.19,1034.1c0,6.2-.47,11.74-1.41,16.62-.94,4.88-2.42,9.01-4.44,12.39s-4.63,5.95-7.84,7.71-7.05,2.64-11.55,2.64c-5.68,0-10.37-1.55-14.08-4.65s-6.48-7.59-8.31-13.46c-1.83-5.87-2.74-12.95-2.74-21.24s.83-15.16,2.48-21.03c1.65-5.87,4.33-10.38,8.02-13.53s8.57-4.73,14.63-4.73c5.75,0,10.49,1.56,14.21,4.68,3.73,3.12,6.5,7.61,8.31,13.48,1.81,5.87,2.72,12.92,2.72,21.14ZM1894.54,1034.1c0,7.11.54,13.03,1.62,17.77s2.83,8.28,5.25,10.63c2.42,2.35,5.6,3.53,9.54,3.53s7.12-1.17,9.54-3.5,4.18-5.87,5.28-10.61c1.1-4.74,1.65-10.68,1.65-17.82s-.54-12.86-1.62-17.59c-1.08-4.72-2.82-8.27-5.23-10.66-2.4-2.39-5.61-3.58-9.62-3.58s-7.21,1.19-9.62,3.58-4.14,5.94-5.2,10.66-1.59,10.58-1.59,17.59Z"/>
        <path fill="#fff" d="M1996.97,1072.4h-50.06v-7.26l20.43-20.75c3.8-3.83,6.99-7.25,9.59-10.24s4.57-5.95,5.93-8.86c1.36-2.91,2.04-6.11,2.04-9.59,0-4.32-1.28-7.62-3.84-9.9s-5.93-3.42-10.11-3.42c-3.66,0-6.9.63-9.72,1.88s-5.71,3.03-8.67,5.33l-4.65-5.85c2.02-1.71,4.22-3.22,6.61-4.55s4.95-2.37,7.68-3.14,5.65-1.15,8.75-1.15c4.7,0,8.76.82,12.18,2.46s6.05,3.97,7.92,7c1.86,3.03,2.8,6.64,2.8,10.82s-.8,7.8-2.4,11.26c-1.6,3.47-3.85,6.9-6.74,10.29s-6.27,6.99-10.14,10.79l-16.62,16.57v.37h39.04v7.94Z"/>
        <path fill="#fff" d="M2008.89,1039.74c0-4.6.32-9.09.97-13.48.64-4.39,1.73-8.47,3.27-12.25,1.53-3.78,3.62-7.1,6.27-9.96s5.95-5.1,9.9-6.72,8.7-2.43,14.24-2.43c1.57,0,3.26.08,5.07.24s3.31.41,4.49.76v7.47c-1.29-.45-2.76-.78-4.42-.99s-3.32-.31-4.99-.31c-6.48,0-11.58,1.41-15.29,4.23-3.71,2.82-6.38,6.65-8.02,11.47s-2.58,10.25-2.82,16.28h.57c1.08-1.74,2.46-3.32,4.13-4.73s3.7-2.53,6.09-3.37,5.16-1.25,8.34-1.25c4.46,0,8.35.91,11.68,2.72s5.91,4.44,7.73,7.89c1.83,3.45,2.74,7.63,2.74,12.54,0,5.26-.98,9.81-2.93,13.64-1.95,3.83-4.73,6.78-8.34,8.86s-7.9,3.11-12.88,3.11c-3.73,0-7.16-.71-10.29-2.14s-5.86-3.55-8.18-6.38c-2.32-2.82-4.12-6.33-5.41-10.53s-1.93-9.08-1.93-14.66ZM2034.6,1066.13c4.74,0,8.54-1.52,11.39-4.55s4.29-7.61,4.29-13.74c0-5.02-1.27-8.99-3.81-11.91s-6.38-4.39-11.5-4.39c-3.48,0-6.51.72-9.09,2.17s-4.58,3.27-6.01,5.46-2.14,4.42-2.14,6.69.34,4.63,1.02,7c.68,2.37,1.72,4.56,3.11,6.58s3.15,3.64,5.28,4.86,4.62,1.83,7.47,1.83Z"/>
      </g>
      <path fill="#fff" d="M2054.81,1105.21h-226.26c-1.55,0-1.55,6.81,0,6.81h226.26c1.55,0,1.55-6.81,0-6.81h0Z"/>
    </g>
    <g>
      <path fill="#fff" d="M1874.93,1221.5h-49.78v-7.22l20.32-20.63c3.78-3.81,6.95-7.21,9.54-10.18,2.58-2.98,4.55-5.92,5.9-8.81,1.35-2.89,2.03-6.07,2.03-9.54,0-4.29-1.27-7.58-3.82-9.85-2.55-2.27-5.9-3.4-10.05-3.4-3.64,0-6.86.62-9.67,1.87s-5.68,3.01-8.63,5.3l-4.62-5.82c2.01-1.7,4.2-3.2,6.57-4.52,2.37-1.32,4.92-2.36,7.64-3.12,2.72-.76,5.62-1.14,8.7-1.14,4.68,0,8.71.81,12.11,2.44,3.39,1.63,6.02,3.95,7.87,6.96,1.85,3.01,2.78,6.6,2.78,10.76s-.8,7.75-2.39,11.2c-1.59,3.45-3.83,6.86-6.7,10.24-2.88,3.38-6.24,6.95-10.08,10.73l-16.52,16.47v.36h38.82v7.9Z"/>
      <path fill="#fff" d="M1936.2,1183.41c0,6.17-.47,11.67-1.4,16.52-.94,4.85-2.41,8.96-4.42,12.32-2.01,3.36-4.61,5.92-7.79,7.66-3.19,1.75-7.02,2.62-11.48,2.62-5.65,0-10.31-1.54-14-4.62-3.69-3.08-6.44-7.54-8.26-13.38-1.82-5.84-2.73-12.88-2.73-21.12s.82-15.08,2.47-20.92c1.65-5.84,4.3-10.32,7.98-13.46s8.52-4.7,14.55-4.7c5.72,0,10.43,1.55,14.13,4.65,3.71,3.1,6.46,7.57,8.26,13.41,1.8,5.84,2.7,12.84,2.7,21.02ZM1894.78,1183.41c0,7.07.54,12.96,1.61,17.67,1.07,4.71,2.81,8.24,5.22,10.58,2.41,2.34,5.57,3.51,9.48,3.51s7.08-1.16,9.48-3.48c2.41-2.32,4.16-5.84,5.25-10.55,1.09-4.71,1.64-10.62,1.64-17.72s-.54-12.79-1.61-17.49c-1.07-4.69-2.81-8.23-5.2-10.6-2.39-2.37-5.58-3.56-9.56-3.56s-7.17,1.19-9.56,3.56c-2.39,2.37-4.11,5.91-5.17,10.6-1.06,4.69-1.58,10.52-1.58,17.49Z"/>
      <path fill="#fff" d="M1996.63,1221.5h-49.78v-7.22l20.32-20.63c3.78-3.81,6.95-7.21,9.54-10.18,2.58-2.98,4.55-5.92,5.9-8.81,1.35-2.89,2.03-6.07,2.03-9.54,0-4.29-1.27-7.58-3.82-9.85-2.55-2.27-5.9-3.4-10.05-3.4-3.64,0-6.86.62-9.67,1.87s-5.68,3.01-8.63,5.3l-4.62-5.82c2.01-1.7,4.2-3.2,6.57-4.52,2.37-1.32,4.92-2.36,7.64-3.12,2.72-.76,5.62-1.14,8.7-1.14,4.68,0,8.71.81,12.11,2.44,3.39,1.63,6.02,3.95,7.87,6.96,1.85,3.01,2.78,6.6,2.78,10.76s-.8,7.75-2.39,11.2c-1.59,3.45-3.83,6.86-6.7,10.24-2.88,3.38-6.24,6.95-10.08,10.73l-16.52,16.47v.36h38.82v7.9Z"/>
      <path fill="#fff" d="M2017.52,1221.5l31.18-68.07h-41.41v-7.9h50.66v6.65l-30.97,69.32h-9.46Z"/>
    </g>
  </g>
</svg>